<svg width="31" height="31" viewBox="0 0 31 31" fill="none" xmlns="http://www.w3.org/2000/svg">
<path d="M15.5 0.125C11.4223 0.125 7.5116 1.74486 4.62823 4.62823C1.74486 7.5116 0.125 11.4223 0.125 15.5C0.125 19.5777 1.74486 23.4884 4.62823 26.3718C7.5116 29.2551 11.4223 30.875 15.5 30.875C19.5777 30.875 23.4884 29.2551 26.3718 26.3718C29.2551 23.4884 30.875 19.5777 30.875 15.5C30.875 11.4223 29.2551 7.5116 26.3718 4.62823C23.4884 1.74486 19.5777 0.125 15.5 0.125ZM24.035 16.385C23.8458 16.6339 23.5836 16.8174 23.285 16.91L20.87 17.72C20.132 17.9722 19.4604 18.3875 18.905 18.935C18.3533 19.4871 17.9374 20.1598 17.69 20.9L16.865 23.315C16.754 23.5873 16.5729 23.8254 16.34 24.005C16.091 24.1854 15.7925 24.2849 15.485 24.29C15.176 24.2945 14.8745 24.1941 14.63 24.005C14.3805 23.8259 14.1921 23.5746 14.09 23.285L13.295 20.87C13.0479 20.1272 12.6302 19.4526 12.0754 18.9004C11.5205 18.3481 10.844 17.9336 10.1 17.69L7.7 16.895C7.41039 16.7929 7.15907 16.6045 6.98 16.355C6.79302 16.1094 6.69278 15.8087 6.695 15.5C6.69702 15.1874 6.79666 14.8832 6.98 14.63C7.15227 14.3869 7.40015 14.2075 7.685 14.12L10.1 13.31C10.8465 13.0572 11.5278 12.6423 12.095 12.095C12.65 11.534 13.0655 10.85 13.31 10.1L14.12 7.73C14.2099 7.4462 14.3822 7.19556 14.615 7.01C14.8542 6.80798 15.1569 6.69648 15.47 6.695C15.7676 6.68989 16.06 6.77343 16.31 6.935C16.574 7.0991 16.7748 7.34751 16.88 7.64L17.69 10.085C17.942 10.8395 18.362 11.5265 18.92 12.095C19.4837 12.6392 20.1595 13.0539 20.9 13.31L23.315 14.15C23.602 14.2415 23.8501 14.4263 24.02 14.675C24.1951 14.9258 24.2893 15.2241 24.29 15.53C24.2885 15.833 24.2 16.13 24.035 16.385Z" fill="white"/>
</svg>
