<svg width="189" height="33" viewBox="0 0 189 33" fill="none" xmlns="http://www.w3.org/2000/svg">
<path d="M15.5 1.125C11.4223 1.125 7.5116 2.74486 4.62823 5.62823C1.74486 8.5116 0.125 12.4223 0.125 16.5C0.125 20.5777 1.74486 24.4884 4.62823 27.3718C7.5116 30.2551 11.4223 31.875 15.5 31.875C19.5777 31.875 23.4884 30.2551 26.3718 27.3718C29.2551 24.4884 30.875 20.5777 30.875 16.5C30.875 12.4223 29.2551 8.5116 26.3718 5.62823C23.4884 2.74486 19.5777 1.125 15.5 1.125ZM24.035 17.385C23.8458 17.6339 23.5836 17.8174 23.285 17.91L20.87 18.72C20.132 18.9722 19.4604 19.3875 18.905 19.935C18.3533 20.4871 17.9374 21.1598 17.69 21.9L16.865 24.315C16.754 24.5873 16.5729 24.8254 16.34 25.005C16.091 25.1854 15.7925 25.2849 15.485 25.29C15.176 25.2945 14.8745 25.1941 14.63 25.005C14.3805 24.8259 14.1921 24.5746 14.09 24.285L13.295 21.87C13.0479 21.1272 12.6302 20.4526 12.0754 19.9004C11.5205 19.3481 10.844 18.9336 10.1 18.69L7.7 17.895C7.41039 17.7929 7.15907 17.6045 6.98 17.355C6.79302 17.1094 6.69278 16.8087 6.695 16.5C6.69702 16.1874 6.79666 15.8832 6.98 15.63C7.15227 15.3869 7.40015 15.2075 7.685 15.12L10.1 14.31C10.8465 14.0572 11.5278 13.6423 12.095 13.095C12.65 12.534 13.0655 11.85 13.31 11.1L14.12 8.73C14.2099 8.4462 14.3822 8.19556 14.615 8.01C14.8542 7.80798 15.1569 7.69648 15.47 7.695C15.7676 7.68989 16.06 7.77343 16.31 7.935C16.574 8.0991 16.7748 8.34751 16.88 8.64L17.69 11.085C17.942 11.8395 18.362 12.5265 18.92 13.095C19.4837 13.6392 20.1595 14.0539 20.9 14.31L23.315 15.15C23.602 15.2415 23.8501 15.4263 24.02 15.675C24.1951 15.9258 24.2893 16.2241 24.29 16.53C24.2885 16.833 24.2 17.13 24.035 17.385Z" fill="white"/>
<path d="M60.4736 24.5V8.66H66.7326C66.8866 8.66 67.0699 8.66733 67.2826 8.682C67.4953 8.68933 67.7006 8.71133 67.8986 8.748C68.7566 8.88 69.4753 9.17333 70.0546 9.628C70.6413 10.0827 71.0813 10.6583 71.3746 11.355C71.6679 12.0443 71.8146 12.8107 71.8146 13.654C71.8146 14.49 71.6643 15.2563 71.3636 15.953C71.0703 16.6423 70.6303 17.218 70.0436 17.68C69.4643 18.1347 68.7493 18.428 67.8986 18.56C67.7006 18.5893 67.4953 18.6113 67.2826 18.626C67.0699 18.6407 66.8866 18.648 66.7326 18.648H62.4316V24.5H60.4736ZM62.4316 16.789H66.6666C66.8059 16.789 66.9636 16.7817 67.1396 16.767C67.3229 16.7523 67.4953 16.7267 67.6566 16.69C68.1626 16.5727 68.5733 16.36 68.8886 16.052C69.2113 15.7367 69.4459 15.37 69.5926 14.952C69.7393 14.5267 69.8126 14.094 69.8126 13.654C69.8126 13.214 69.7393 12.785 69.5926 12.367C69.4459 11.9417 69.2113 11.5713 68.8886 11.256C68.5733 10.9407 68.1626 10.728 67.6566 10.618C67.4953 10.574 67.3229 10.5483 67.1396 10.541C66.9636 10.5263 66.8059 10.519 66.6666 10.519H62.4316V16.789ZM74.0088 24.5V8.66H80.2678C80.4218 8.66 80.6051 8.66733 80.8178 8.682C81.0304 8.68933 81.2358 8.71133 81.4338 8.748C82.2918 8.88 83.0104 9.17333 83.5898 9.628C84.1764 10.0827 84.6164 10.6583 84.9098 11.355C85.2031 12.0443 85.3498 12.8107 85.3498 13.654C85.3498 14.8787 85.0308 15.942 84.3928 16.844C83.7548 17.7387 82.8198 18.2997 81.5878 18.527L80.8398 18.648H75.9668V24.5H74.0088ZM83.4358 24.5L80.3118 18.054L82.2478 17.46L85.6798 24.5H83.4358ZM75.9668 16.789H80.2018C80.3411 16.789 80.4988 16.7817 80.6748 16.767C80.8581 16.7523 81.0304 16.7267 81.1918 16.69C81.6978 16.5727 82.1084 16.36 82.4238 16.052C82.7464 15.7367 82.9811 15.37 83.1278 14.952C83.2744 14.5267 83.3478 14.094 83.3478 13.654C83.3478 13.214 83.2744 12.785 83.1278 12.367C82.9811 11.9417 82.7464 11.5713 82.4238 11.256C82.1084 10.9407 81.6978 10.728 81.1918 10.618C81.0304 10.574 80.8581 10.5483 80.6748 10.541C80.4988 10.5263 80.3411 10.519 80.2018 10.519H75.9668V16.789ZM94.6145 24.83C93.0378 24.83 91.6995 24.4817 90.5995 23.785C89.4995 23.0883 88.6598 22.1203 88.0805 20.881C87.5085 19.6417 87.2225 18.208 87.2225 16.58C87.2225 14.952 87.5085 13.5183 88.0805 12.279C88.6598 11.0397 89.4995 10.0717 90.5995 9.375C91.6995 8.67833 93.0378 8.33 94.6145 8.33C96.1985 8.33 97.5405 8.67833 98.6405 9.375C99.7405 10.0717 100.577 11.0397 101.149 12.279C101.721 13.5183 102.007 14.952 102.007 16.58C102.007 18.208 101.721 19.6417 101.149 20.881C100.577 22.1203 99.7405 23.0883 98.6405 23.785C97.5405 24.4817 96.1985 24.83 94.6145 24.83ZM94.6145 22.96C95.7952 22.9673 96.7778 22.7033 97.5625 22.168C98.3545 21.6253 98.9448 20.8737 99.3335 19.913C99.7295 18.9523 99.9275 17.8413 99.9275 16.58C99.9275 15.3113 99.7295 14.2003 99.3335 13.247C98.9448 12.2937 98.3545 11.5493 97.5625 11.014C96.7778 10.4787 95.7952 10.2073 94.6145 10.2C93.4338 10.1927 92.4512 10.4567 91.6665 10.992C90.8892 11.5273 90.3025 12.2753 89.9065 13.236C89.5105 14.1967 89.3088 15.3113 89.3015 16.58C89.2942 17.8413 89.4885 18.9487 89.8845 19.902C90.2805 20.8553 90.8708 21.6033 91.6555 22.146C92.4475 22.6813 93.4338 22.9527 94.6145 22.96ZM104.216 24.5V8.66H105.998L111.982 21.277L117.933 8.66H119.737V24.489H117.878V12.961L112.499 24.5H111.454L106.075 12.961V24.5H104.216ZM122.821 24.5V8.66H129.08C129.234 8.66 129.418 8.66733 129.63 8.682C129.843 8.68933 130.048 8.71133 130.246 8.748C131.104 8.88 131.823 9.17333 132.402 9.628C132.989 10.0827 133.429 10.6583 133.722 11.355C134.016 12.0443 134.162 12.8107 134.162 13.654C134.162 14.49 134.012 15.2563 133.711 15.953C133.418 16.6423 132.978 17.218 132.391 17.68C131.812 18.1347 131.097 18.428 130.246 18.56C130.048 18.5893 129.843 18.6113 129.63 18.626C129.418 18.6407 129.234 18.648 129.08 18.648H124.779V24.5H122.821ZM124.779 16.789H129.014C129.154 16.789 129.311 16.7817 129.487 16.767C129.671 16.7523 129.843 16.7267 130.004 16.69C130.51 16.5727 130.921 16.36 131.236 16.052C131.559 15.7367 131.794 15.37 131.94 14.952C132.087 14.5267 132.16 14.094 132.16 13.654C132.16 13.214 132.087 12.785 131.94 12.367C131.794 11.9417 131.559 11.5713 131.236 11.256C130.921 10.9407 130.51 10.728 130.004 10.618C129.843 10.574 129.671 10.5483 129.487 10.541C129.311 10.5263 129.154 10.519 129.014 10.519H124.779V16.789Z" fill="white"/>
<path d="M151.264 20.59H144.576L143.344 24H141.232L146.776 8.754H149.086L154.608 24H152.496L151.264 20.59ZM150.692 18.962L147.92 11.218L145.148 18.962H150.692ZM159.026 8.666V24H157.024V8.666H159.026Z" fill="white"/>
</svg>
